<?xml version="1.0" encoding="UTF-8" standalone="no"?>
<!-- Created with Inkscape (http://www.inkscape.org/) -->

<svg
   width="210mm"
   height="297mm"
   viewBox="0 0 210 297"
   version="1.1"
   id="svg1"
   xml:space="preserve"
   inkscape:version="1.4 (86a8ad7, 2024-10-11)"
   sodipodi:docname="dibujo.svg"
   xmlns:inkscape="http://www.inkscape.org/namespaces/inkscape"
   xmlns:sodipodi="http://sodipodi.sourceforge.net/DTD/sodipodi-0.dtd"
   xmlns="http://www.w3.org/2000/svg"
   xmlns:svg="http://www.w3.org/2000/svg"><sodipodi:namedview
     id="namedview1"
     pagecolor="#ffffff"
     bordercolor="#000000"
     borderopacity="0.25"
     inkscape:showpageshadow="2"
     inkscape:pageopacity="0.0"
     inkscape:pagecheckerboard="0"
     inkscape:deskcolor="#d1d1d1"
     inkscape:document-units="mm"
     inkscape:zoom="0.49264169"
     inkscape:cx="397.85508"
     inkscape:cy="567.34946"
     inkscape:window-width="1366"
     inkscape:window-height="697"
     inkscape:window-x="-8"
     inkscape:window-y="-8"
     inkscape:window-maximized="1"
     inkscape:current-layer="svg1" /><defs
     id="defs1" /><g
     inkscape:label="Capa 1"
     inkscape:groupmode="layer"
     id="layer1" /><g
     id="g3"><path
       style="fill:#ffffff;fill-opacity:1"
       d="M 102.3416,236.91894 C 84.387638,235.70943 67.268832,230.1355 53.456874,221.00193 43.260381,214.25919 33.670746,204.69094 27.045101,194.64904 18.577374,181.81526 13.698114,168.13858 12.389944,153.57032 c -0.36264,-4.03852 -0.41235,-12.88008 -0.095,-16.88775 1.36195,-17.19699 7.8541,-34.06459 18.401068,-47.808728 3.055933,-3.9823 4.599342,-5.73029 8.468833,-9.59138 10.874326,-10.850716 23.606718,-18.468507 38.890703,-23.268308 19.181694,-6.023842 38.561062,-5.928577 57.700522,0.283643 27.56781,8.947868 49.759,30.289685 59.42562,57.151113 2.86346,7.95694 4.56011,15.97188 5.12977,24.23298 1.15209,16.70743 -1.92226,32.41186 -9.1917,46.95323 -2.20309,4.40695 -3.23723,6.19975 -5.74204,9.95456 -3.97291,5.95554 -8.18945,10.93833 -13.74256,16.23992 -17.02285,16.25179 -40.04231,25.68511 -63.66508,26.0898 -2.46508,0.0422 -4.99791,0.042 -5.62851,-4.6e-4 z m 29.68914,-20.69159 c -3.47315,-5.45029 -5.37714,-8.12628 -9.23327,-12.97703 -2.65881,-3.34461 -3.99222,-4.91502 -4.17328,-4.91502 -0.0745,0 -0.87777,0.42693 -1.78513,0.94872 l -1.64976,0.94872 0.92449,0.82672 c 5.61246,5.01886 13.61191,13.14792 16.59899,16.86792 0.55143,0.68673 1.03072,1.22411 1.0651,1.19419 0.0344,-0.0299 -0.75184,-1.33232 -1.74714,-2.89422 z m 14.65666,-2.14748 c 1.46451,-0.91452 2.68668,-1.68297 2.71594,-1.70766 0.0293,-0.0247 -0.68417,-1.55731 -1.58539,-3.40583 -0.90123,-1.84853 -1.92114,-3.95997 -2.26647,-4.6921 -2.34602,-4.97371 -4.46399,-9.48198 -6.15421,-13.09973 l -1.95816,-4.19126 -1.13225,-0.43955 c -0.62273,-0.24175 -2.04688,-0.78431 -3.16476,-1.20569 -1.11789,-0.42138 -2.03252,-0.85522 -2.03252,-0.96409 0,-0.17691 1.05339,-1.63667 5.64005,-7.81583 2.35584,-3.17379 3.13927,-4.2766 3.07441,-4.32774 -0.0348,-0.0274 -1.47035,-0.76718 -3.19018,-1.6439 -1.71982,-0.87672 -3.19776,-1.65525 -3.28429,-1.73007 -0.0865,-0.0748 0.57012,-0.15842 1.45924,-0.18579 5.0615,-0.15578 8.56808,-2.03914 9.87594,-5.30429 0.42116,-1.05146 0.47534,-1.56969 0.50837,-4.86313 0.0203,-2.02744 0.14277,-4.29486 0.27208,-5.0387 0.37459,-2.15478 0.86222,-7.0566 0.86222,-8.66725 v -1.47706 l 1.51741,-0.6551 c 3.3005,-1.42492 4.67005,-3.7328 4.02334,-6.77985 -0.22281,-1.04974 -1.21052,-3.23107 -3.83944,-8.47923 -1.94671,-3.88624 -3.60125,-7.25711 -3.67676,-7.49081 -0.11889,-0.368 -0.0502,-0.42493 0.5125,-0.42493 1.10803,0 8.80692,-1.59789 11.40151,-2.36637 4.60181,-1.36298 7.36409,-2.75338 9.046,-4.55336 1.22216,-1.30793 1.46563,-2.17689 0.88574,-3.16118 -0.86942,-1.47573 -3.26527,-2.5284 -9.70547,-4.26431 -3.63592,-0.98003 -12.07752,-2.89808 -13.91717,-3.16217 -0.51595,-0.0741 -1.10939,-0.18244 -1.31875,-0.24084 -0.25926,-0.0723 -2.29491,-3.904598 -6.38304,-12.016588 -6.39767,-12.69476 -6.54286,-12.93192 -8.6656,-14.15401 -3.16828,-1.82404 -8.38568,-2.76427 -15.3712,-2.77005 l -4.53409,-0.004 v -4.635563 -4.63556 l -2.65791,0.145376 c -12.446883,0.68079 -24.962661,3.997524 -35.668571,9.452327 -7.355838,3.74789 -12.273578,7.263 -18.452768,13.18971 -7.466323,7.16124 -12.80671,14.416528 -17.209578,23.380428 -2.526945,5.14466 -3.749778,8.41886 -5.226462,13.99415 -1.020727,3.85383 -1.745437,7.54834 -2.229507,11.36597 -0.53072,4.18557 -0.52172,15.48318 0.0154,19.35287 2.173161,15.65576 8.050226,29.04594 18.021967,41.06085 2.174954,2.6206 9.702867,10.11132 10.047953,9.99832 0.136755,-0.0448 0.383667,-0.49263 0.548693,-0.99522 2.919083,-8.89011 8.159268,-21.91318 11.474309,-28.5163 0.835941,-1.66509 1.519893,-3.17884 1.519893,-3.3639 0,-0.38462 -1.281795,-7.23112 -3.250977,-17.36458 -0.74419,-3.82961 -1.682628,-8.66783 -2.085418,-10.75159 -0.402791,-2.08376 -0.867818,-4.45291 -1.033394,-5.26477 -0.338483,-1.65967 -0.374533,-2.17654 -0.141955,-2.03533 0.0875,0.0531 1.424273,0.34028 2.970607,0.63813 1.546333,0.29785 4.781496,0.95445 7.189251,1.45911 2.407755,0.50466 4.537028,0.95032 4.731717,0.99034 0.289274,0.0595 0.244259,-0.11976 -0.246256,-0.98044 -1.462618,-2.56638 -2.628314,-6.37668 -2.886659,-9.43561 l -0.139557,-1.65242 -3.648113,0.0682 c -8.486139,0.15871 -13.440006,-1.19782 -12.84724,-3.51799 0.426936,-1.67109 5.972212,-5.00203 13.211808,-7.93607 l 1.719581,-0.69691 -0.127855,-5.01741 c -0.130907,-5.13719 0.0556,-9.07397 0.645673,-13.628478 0.411357,-3.17509 1.771437,-10.15342 2.045309,-10.4941 0.2955,-0.3676 6.06764,-3.12276 8.590165,-4.10027 2.363773,-0.916 7.772136,-2.67666 10.110486,-3.29141 7.261015,-1.90893 16.723258,-2.95243 22.568188,-2.48884 5.33424,0.42308 9.85743,1.61332 11.16412,2.93775 0.90424,0.9165 11.96573,23.512578 11.6581,23.814798 -0.0552,0.0542 -2.1293,0.61959 -4.60906,1.25633 -2.47977,0.63675 -4.50867,1.21402 -4.50867,1.28284 0,0.0688 0.96153,0.24224 2.13675,0.38538 1.882,0.22924 7.23149,1.08646 17.25036,2.76426 1.6625,0.2784 4.92235,0.80521 7.24412,1.17069 2.32176,0.36547 4.22138,0.72611 4.22138,0.80143 0,0.22085 -4.72169,1.60502 -7.31038,2.14305 -2.92302,0.60752 -7.5639,1.27624 -10.14845,1.46234 -1.06055,0.0764 -1.92828,0.15379 -1.92828,0.17206 0,0.0183 0.32833,0.83312 0.72962,1.81078 0.40129,0.97766 0.72962,1.95395 0.72962,2.16954 0,0.21558 -0.33957,0.88505 -0.75459,1.48771 l -0.7546,1.09573 1.06026,2.04793 c 0.58313,1.12635 2.28245,4.21032 3.77625,6.85325 1.4938,2.64293 2.77412,5.10966 2.84515,5.48161 0.1598,0.83681 -0.21482,1.77342 -0.88079,2.20209 -0.27672,0.17813 -1.5102,0.65245 -2.74106,1.05405 -1.23086,0.4016 -2.31248,0.79899 -2.4036,0.88309 -0.14246,0.13147 0.0394,1.68471 0.58893,5.02943 0.11754,0.71546 0.0513,0.92253 -0.52177,1.63094 -0.449,0.55503 -0.61706,0.9432 -0.53189,1.22842 0.0685,0.22934 0.17948,0.88522 0.24665,1.45751 0.11325,0.96503 0.0678,1.11051 -0.62713,2.00482 -1.25691,1.61763 -1.33038,2.17704 -0.64014,4.87397 1.05289,4.1139 0.72864,5.76515 -1.32744,6.75999 -0.95233,0.4608 -1.16936,0.47672 -7.10431,0.52134 -4.42987,0.0333 -6.20615,0.11465 -6.42652,0.29432 -0.65252,0.53201 -1.93974,3.67077 -1.93974,4.72988 0,0.30347 1.06377,0.89591 4.88074,2.71822 2.68441,1.28159 4.94478,2.43196 5.02306,2.55638 0.12785,0.20323 -2.23953,3.77905 -6.70499,10.12756 -1.84541,2.62361 -2.03813,2.1469 1.65867,4.10269 l 2.32257,1.22875 1.22265,2.15032 c 1.64609,2.89506 10.81317,19.62955 12.66771,23.12491 0.24389,0.45968 0.4787,0.83579 0.52179,0.83579 0.0431,0 1.27658,-0.74825 2.7411,-1.66278 z m -17.52586,-9.85679 c -2.8511,-6.63675 -5.50967,-11.79341 -9.37049,-18.17531 -3.29984,-5.45463 -7.70884,-11.53136 -11.76355,-16.2132 -2.43508,-2.81171 -8.731362,-9.00295 -11.74823,-11.55223 -7.023196,-5.93467 -16.290367,-11.76693 -24.060669,-15.14249 -2.316829,-1.00647 -6.149677,-2.5346 -6.149677,-2.45183 0,0.0452 0.914634,0.71862 2.032521,1.4966 19.923322,13.86529 23.882892,16.92108 31.598833,24.38637 6.525062,6.31309 12.482102,13.21589 18.310482,21.21751 2.4526,3.3671 7.78384,11.31965 9.71319,14.48905 0.87423,1.43611 1.61965,2.61111 1.65651,2.61111 0.0369,0 -0.0617,-0.29951 -0.21892,-0.66558 z M 125.80107,179.394 c 0.61793,-1.97401 1.46558,-5.59092 1.33619,-5.70147 -0.30288,-0.25879 -6.88151,-4.50366 -9.78628,-6.31463 -4.16738,-2.59812 -7.14181,-4.34917 -10.73588,-6.32022 -1.49052,-0.81742 -2.94455,-1.62235 -3.23119,-1.78873 -0.60673,-0.35218 -0.40937,-0.16633 3.96081,3.72985 3.99153,3.5586 6.79542,5.93375 12.78332,10.82861 l 4.96592,4.05944 -0.13183,1.36696 c -0.0725,0.75183 -0.17745,1.64343 -0.2332,1.98134 -0.0975,0.59101 -0.0888,0.59887 0.22865,0.20677 0.18151,-0.22418 0.56108,-1.14575 0.84349,-2.04792 z"
       id="path3" /></g></svg>
